<svg xmlns="http://www.w3.org/2000/svg" viewBox="0 0 512 512">
  <g>
    <path fill="currentColor"
      d="M 60.5,25.5 C 66.9696,25.2804 73.303,26.1137 79.5,28C 208.833,92.6667 338.167,157.333 467.5,222C 483.515,234.207 488.682,250.04 483,269.5C 480.055,277.777 474.888,284.277 467.5,289C 338.167,353.667 208.833,418.333 79.5,483C 55.8805,489.104 38.7138,481.271 28,459.5C 25.9466,453.298 25.2799,446.965 26,440.5C 39.0299,386.047 52.5299,331.714 66.5,277.5C 67.7287,276.719 69.062,276.219 70.5,276C 142.866,269.442 215.2,262.608 287.5,255.5C 215.2,248.392 142.866,241.558 70.5,235C 69.062,234.781 67.7287,234.281 66.5,233.5C 51.8877,177.718 38.2211,121.718 25.5,65.5C 27.2969,43.3781 38.9636,30.0448 60.5,25.5 Z" />
  </g>
</svg>